<svg width="100" height="100" viewBox="0 0 100 100" fill="none" xmlns="http://www.w3.org/2000/svg">
<path d="M49.8438 47.3437V96.875C49.8438 96.875 70.3125 82.5 84.6875 78.2812C84.6875 78.2812 85.3125 47.6563 94.2187 32.3438L49.8438 47.3437" fill="#076170"/>
<path d="M62.6562 89.375C62.6562 89.375 63.4375 45.4687 65 43.2812C66.5625 40.9375 80 38.5938 80 38.5938C80 38.5938 74.5313 79.6875 75.7813 82.3438C75.9375 82.1875 70.3125 84.5313 62.6562 89.375Z" fill="#B3690E"/>
<path d="M49.8437 96.875C49.8437 96.875 35.4687 84.6875 13.125 78.2812C13.125 78.2812 14.8437 53.125 6.71875 33.9062L49.8437 47.3437V96.875Z" fill="#3BAACF"/>
<path d="M22.1875 82.3438C22.1875 82.3438 35.3125 87.6562 36.25 89.375C37.1875 91.0938 37.1875 45.1562 37.1875 45.1562C37.1875 45.1562 19.2188 40.1562 17.6562 40.1562C17.6562 40.1562 23.125 58.75 22.1875 82.3438" fill="#E9C243"/>
<path opacity="0.3" d="M49.8438 47.3437V55.625L90 41.875C91.0937 38.4375 92.5 35.1562 94.0625 32.3438L49.8438 47.3437M9.53125 42.5C8.75 39.5313 7.8125 36.7187 6.5625 33.9062L49.6875 47.3437V55.625L9.53125 42.5Z" fill="black"/>
<path d="M3.125 29.5312L47.6562 39.375L96.875 27.5L48.5938 24.8438L3.125 29.5312Z" fill="#4FC7E8"/>
<path d="M3.125 29.5312L6.71875 39.375L47.6562 50.9375V39.375L3.125 29.5312Z" fill="#3BAACF"/>
<path d="M47.6562 50.9375C47.6562 50.9375 84.8438 37.1875 94.0625 36.5625C94.0625 36.5625 94.6875 31.0938 96.875 27.6562L47.6562 39.375V50.9375Z" fill="#076170"/>
<path d="M16.4062 32.5L25.4687 41.0937L35.4688 36.5625L50 32.1875L68.125 34.375L77.6563 36.25L85.3125 30.3125L16.4062 32.5Z" fill="#F0AE11"/>
<path d="M35.4688 36.5625L50 32.1875L68.125 34.375L85.3125 30.3125L49.0625 26.875L16.4062 32.5L35.4688 36.5625Z" fill="#F0AE11"/>
<path d="M16.4062 32.5V43.4375L34.6875 48.4375L35.4688 36.5625L16.4062 32.5Z" fill="#F8D048"/>
<path d="M68.125 34.375L68.4375 44.8438L84.0625 40.1563L85.3125 30.3125L68.125 34.375Z" fill="#C47116"/>
<path d="M58.2812 27.0312C58.2812 27.0312 58.2812 16.0937 68.9062 6.5625C68.9062 6.5625 62.5 8.90625 59.375 8.28125C55.625 7.65625 54.375 3.125 54.375 3.125C54.375 3.125 45.3125 22.8125 47.9687 25.3125C50.625 27.9688 58.2812 27.0312 58.2812 27.0312Z" fill="#EA9F07"/>
<path d="M44.375 33.4375C44.375 33.4375 38.2813 20.9375 25.3125 14.375C25.3125 14.375 35.4688 13.4375 37.8125 12.1875C40.7812 10.7813 42.5 6.875 42.5 6.875C42.5 6.875 53.75 26.5625 52.8125 29.5312C51.875 32.5 44.375 33.4375 44.375 33.4375Z" fill="#F8D048"/>
<path d="M50.9375 32.0313C50.9375 32.0313 41.4062 35.7813 29.2187 35.7813C3.59373 35.6251 -2.34842e-05 17.1876 25.3125 18.9063C46.0937 20.4688 50.9375 32.0313 50.9375 32.0313" fill="#EA9F07"/>
<path d="M49.2187 31.8751C49.2187 31.8751 60.4687 32.8125 70.9375 30.1563C92.8125 24.5313 84.6875 7.9688 64.0625 15.0001C47.1875 20.7813 49.2187 31.8751 49.2187 31.8751Z" fill="#F0AE11"/>
<path d="M50.9375 32.0312C50.9375 32.0312 45 34.375 37.3438 34.375C21.4063 34.375 19.0625 22.8125 34.8438 23.9062C47.8125 24.8437 50.9375 32.0312 50.9375 32.0312" fill="#824000"/>
<path d="M50.9375 32.0312C50.9375 32.0312 58.75 32.6562 66.0937 30.7812C81.4062 26.8749 75.625 15.3124 61.4062 20.1562C49.5312 24.2187 50.9375 32.0312 50.9375 32.0312" fill="#824000"/>
</svg>
