<svg width="49" height="50" viewBox="0 0 49 50" fill="none" xmlns="http://www.w3.org/2000/svg">
<path d="M24.22 0.78125C10.8411 0.78125 0.0012207 11.6211 0.0012207 25C0.0012207 38.3789 10.8411 49.2188 24.22 49.2188C37.5989 49.2188 48.4387 38.3789 48.4387 25C48.4387 11.6211 37.5989 0.78125 24.22 0.78125ZM8.59497 25H5.46997C5.46997 14.6582 13.8782 6.25 24.22 6.25V9.375C15.6067 9.375 8.59497 16.3867 8.59497 25ZM24.22 34.375C19.0442 34.375 14.845 30.1758 14.845 25C14.845 19.8242 19.0442 15.625 24.22 15.625C29.3958 15.625 33.595 19.8242 33.595 25C33.595 30.1758 29.3958 34.375 24.22 34.375ZM24.22 21.875C22.4915 21.875 21.095 23.2715 21.095 25C21.095 26.7285 22.4915 28.125 24.22 28.125C25.9485 28.125 27.345 26.7285 27.345 25C27.345 23.2715 25.9485 21.875 24.22 21.875Z" fill="#FBFF22"/>
</svg>
