<svg width="20" height="20" viewBox="0 0 20 20" fill="none" xmlns="http://www.w3.org/2000/svg">
<path fill-rule="evenodd" clip-rule="evenodd" d="M18.7458 9.73103C18.6745 7.41148 17.6846 5.21528 15.994 3.62555C14.3034 2.03583 12.0505 1.1828 9.73097 1.25414C7.41142 1.32548 5.21521 2.31533 3.62549 4.00594C2.03576 5.69655 1.18274 7.94943 1.25408 10.269C1.32541 12.5885 2.31526 14.7847 4.00587 16.3745C5.69648 17.9642 7.94937 18.8172 10.2689 18.7459C12.5885 18.6745 14.7847 17.6847 16.3744 15.9941C17.9641 14.3035 18.8171 12.0506 18.7458 9.73103V9.73103ZM0.00466664 10.3074C-0.0768603 7.65649 0.898022 5.08177 2.71485 3.14964C4.53168 1.21752 7.04163 0.0862583 9.69254 0.00473134C12.3435 -0.0767956 14.9182 0.898087 16.8503 2.71492C18.7824 4.53174 19.9137 7.0417 19.9952 9.69261C20.0767 12.3435 19.1019 14.9182 17.285 16.8504C15.4682 18.7825 12.9582 19.9138 10.3073 19.9953C7.65643 20.0768 5.0817 19.1019 3.14958 17.2851C1.21745 15.4683 0.0861936 12.9583 0.00466664 10.3074V10.3074ZM5.64622 10.7592C5.48054 10.7643 5.31962 10.7034 5.19886 10.5898C5.0781 10.4763 5.0074 10.3194 5.0023 10.1537C4.99721 9.98802 5.05814 9.8271 5.17169 9.70634C5.28524 9.58559 5.44211 9.51488 5.6078 9.50979L12.8456 9.28719L10.0807 6.68846C10.0208 6.63216 9.97262 6.56463 9.93885 6.4897C9.90508 6.41478 9.8864 6.33394 9.88388 6.2518C9.88135 6.16966 9.89503 6.08783 9.92413 6.01097C9.95323 5.93412 9.99718 5.86375 10.0535 5.80388C10.1098 5.74401 10.1773 5.69581 10.2522 5.66205C10.3272 5.62828 10.408 5.6096 10.4901 5.60707C10.5723 5.60455 10.6541 5.61822 10.731 5.64732C10.8078 5.67642 10.8782 5.72038 10.9381 5.77667L14.8016 9.40963C14.8615 9.46587 14.9098 9.53338 14.9436 9.60831C14.9775 9.68324 14.9962 9.7641 14.9987 9.84627C15.0012 9.92844 14.9875 10.0103 14.9584 10.0872C14.9292 10.164 14.8852 10.2344 14.8288 10.2942L11.1958 14.1577C11.0821 14.2786 10.925 14.3494 10.7592 14.3545C10.5933 14.3596 10.4321 14.2986 10.3112 14.1849C10.1903 14.0712 10.1195 13.9141 10.1144 13.7483C10.1093 13.5824 10.1703 13.4212 10.284 13.3003L12.884 10.5366L5.64622 10.7592Z" fill="#FBFF22"/>
</svg>
